# xmcd
#
# Track frame offsets:
#	150
#	42452
#	65113
#	90559
#	100062
#	129605
#	138289
#	155086
#	182272
#	205030
#
# Disc length: 3007 seconds
# Revision: 0
# Processed by: cddbd v1.5.2PL0 Copyright (c) Steve Scherf et al.
# Submitted via: dBpowerAMP V12.0
#
DISCID=870bbd0a
DTITLE=The Ocean - Anthropocentric
DYEAR=2010
DGENRE=Metal
TTITLE0=Anthropocentric
TTITLE1=The Grand Inquisitor I: Karamazov Baseness
TTITLE2=She Was the Universe
TTITLE3=For He That Wavereth…
TTITLE4=The Grand Inquisitor II: Roots and Locusts
TTITLE5=The Grand Inquisitor III: A Tiny Grain of Faith
TTITLE6=Sewers of the Soul
TTITLE7=Wille Zum Untergang
TTITLE8=Heaven TV
TTITLE9=The Almightiness Contradiction
EXTD=
EXTT0=
EXTT1=
EXTT2=
EXTT3=
EXTT4=
EXTT5=
EXTT6=
EXTT7=
EXTT8=
EXTT9=
PLAYORDER=
